<?xml version="1.0" encoding="utf-8"?>
<!-- Generator: Adobe Illustrator 17.0.0, SVG Export Plug-In . SVG Version: 6.00 Build 0)  -->
<!DOCTYPE svg PUBLIC "-//W3C//DTD SVG 1.1//EN" "http://www.w3.org/Graphics/SVG/1.1/DTD/svg11.dtd">
<svg version="1.1" id="Layer_1" xmlns="http://www.w3.org/2000/svg" xmlns:xlink="http://www.w3.org/1999/xlink" x="0px" y="0px"
	 width="480px" height="480px" viewBox="0 0 480 480" enable-background="new 0 0 480 480" xml:space="preserve">
<g>
	<rect x="311.667" y="248.306" fill="#FFFFFF" width="103.806" height="30.167"/>
	<rect x="311.667" y="187.968" fill="#FFFFFF" width="103.806" height="45.254"/>
	<polygon fill="#FFFFFF" points="363.089,13.538 270.56,112.966 311.667,112.966 311.667,172.881 415.472,172.881 415.472,112.966 
		455.618,112.966 	"/>
	<path fill="#FFFFFF" d="M241.406,379.775c-44.173,0-70.78-25.542-70.78-89.411V87.04L65.235,48.794V293.56
		c0,111.237,64.934,173.521,175.106,173.521c110.198,0,175.132-62.283,175.132-173.521l0,0H311.667v-3.196
		C311.667,354.233,285.059,379.775,241.406,379.775z"/>
</g>
</svg>
